<mxfile host="65bd71144e">
    <diagram id="TTP1uQUhdvlARUyeptEc" name="Page-1">
        <mxGraphModel dx="1066" dy="669" grid="1" gridSize="10" guides="1" tooltips="1" connect="1" arrows="1" fold="1" page="1" pageScale="1" pageWidth="850" pageHeight="1100" math="0" shadow="0">
            <root>
                <mxCell id="0"/>
                <mxCell id="1" parent="0"/>
                <mxCell id="2" value="" style="shape=image;verticalLabelPosition=bottom;labelBackgroundColor=default;verticalAlign=top;aspect=fixed;imageAspect=0;image=data:image/png,iVBORw0KGgoAAAANSUhEUgAAAoAAAAFoCAYAAADHMkpRAAAACXBIWXMAAAsTAAALEwEAmpwYAAAgAElEQVR4nOzdZ3hVVfo28Hudmt57ICSEGnqHICUUQUBAVBQUFFGxYcHKjN2x94ZSVBQUBREQUJr0XlMInQRIIb33U9b7wXFe5z8oZ5+ck32S3L/rGueDWXs9CDm5WWuvZwFEREREREREREREREREREREREREREREREREREREREREREREpCKhdgFERM7y9jffeLqZTL66Oo3BojUZAEAvpcWs19fpTKZqf3//4smTJ1vUrpOIqKExABJRkzD3tdeCL1+82EtK0U5ItC8qLW114tQpbw3gJiG0AkL7+1dKCcAiIE2evj7lXTp0LIREmoRMkVKkPjNn9plOnTrVqfqLISJyMgZAImp0jh075mexWMKef+nV9hcyMsdAg3iz2RILSIOEEMDv/8DVP+Pkv/8hASmFFFKj1ZRqhGa3FNbtzzwy+0CXLl0uWq3W/N69e5uc+6siImo4DIBE1ChIKTWLFi1qVVZjGjh/0aLhUsp+gGgjAL0Tpy0G5P7e3XvsHjhk4L5gb+/9kydPrnbifEREDYIBkIhc3lMvvtjiZMrJ+06fPjNSatBGQAQ0cAm1EiLb28PzcKcuXb94/qlHtrdt27a2gWsgInIYBkAicknp6eluv2ze3OXT+QummU3W2wH44vfPLDU/t6SUMOt02pTomJavv/XSS7s6d+6cL4SwqlgTEZFiDIBE5FKklGLBgsXtv1iy5NaSsqJpgCYGLvlZJSutVmyYcP3Y7zu3G75uxoyEGrUrIiKylQt+qBJRczV79mxjembujDPnzt0JyO4Qwqh2TVdhhZR5Hm5e62LbtHh35bJlp9QuiIjIFgyARKS6Y8eO+S36akn85q1b/yGFpp8Q0KIRfT5JCauQMk+n03y18NOPvoiPj78ghGB/QSJyWY3mA5aImp4XpdR4fPLJgEULF80ANBMBEah2TfUmrHu7d+76RcKoEevunz49T+1yiIiuhAGQiFSxZ8+ekKdfeuXe3Mt5U4RAewBatWtyEAnIYotGs++msaPfePPVV3erXRAR0f/FAEhEDUZKKZKTk4MfeXrumPz8grkmk7k10Li2exWQQohyvUG//IF7Z34+JD4+hTeMEJGraIofukTkgpYvX+6+Y9/Bazdu2XK7RmjGAXBTu6YGIiVwzs/P58t7p931wz33TE9XuyAiIgZAInK6hd98E/PhB588XWc2j4NEOAQ0atfU0ISUVVLIA+3btlv4848//CiE4NVyRKQaBkAicgoppea3336Lfmzu81PNZtO9ZoslQjSd9/zsJSVgcnczbBkycNAbD86amdihQ4dytYsiouaHAZCIHO6d774L2r1y9ejU02dmCY0mHmh+K35XIaVEjlVYl8+69+5vnnrooaNqF0REzQsDIBE51D0Pz4nftHfv48a6usEAAsHPmb9jtgpxPKBFxJdvPjFnSUJCQonaBRFR88APZiKqt9TUVMPGrVvbf/PdsplVFTUzIOAFrvrZSgIwGwyGlOCQgNc+fOONrV27di1WuygiatoYAImoXhYuXNji0/kLp1TVmWYAoj0Y/OqjEhbrirHXjvh2wIC+OydPnsy2MUTkFAyARGSX1NRUwyNPzR2Xnp52r06rHySF8FC7pibCDMgMS51p5VP/fPq9WdOmXVa7ICJqehgAiUiRpKQkz0/mz487ePjYc1U1NSMFYAAEV/0cTAJmvU6bbnRz+/jVV19eNSYhIVPtmoio6WAAJCKbvfHuR90WLvpmqkYvpwrISPAzpCGYpRW/dWgT9/kH7760LTY2tlTtgoio8WvuPbmIyAa//PKLj09g8B1r1q79FzTW8QLwB8NfQ9EIgdiCorwhB44caz9h7IS0vXt35apdFBE1bvwAJ6K/dP78ed/bZ96bUFFR+WRtbW1PCGEEPzdUI6W0CCFKfHy8Ppl289Rvu3Ztn56QkGBWuy4ianz4QU5E/yNVSsMnD8/pt3XHzqmQcroU4AEP12IWQLKXu/6L999+e8XgwYPz1S6IiBoXBkAi+i+ffPJJ4L4jSU8dPHT4BqERMQB0atdEf0GiLDgoYEvP7l0+++i997YLIbgaSEQ2YQAkIgDAyg0bwl959dWxdRU1j5ktlrYA9GrXRLaQVkBUenh4runRp/vrz8+ZkxYTE1OjdlVE5NoYAImauVOnTnnf/tpr15QkHn9EAwwFYFS7JrKLhERaeVnx4tmzHlr+j388fkbtgojIdTEAEjVjDz/xROczZ9Jnn7+QNkZAsK1L01AtoEkcmTD4w1EjEtZef/31VWoXRESuhx/2RM3Mtm3bdEeOHIn8cfW6W4vKSp+QEH6C7/k1LRISkJUGN7c9/l5ub3/ywQf7u3XrVql2WUTkOhgAiZqRDRs2BEyfOXOyX2DonQB6gu/5NXlSorSupmbBwPg+P3y7eHGyEMKkdk1EpD4GQKJmYNu2bbqffv5l4IEjhx8oKS4dDQEftWuiBlUHyNP9+vRe3rXDoPeffHI6VwOJmjkGQKIm7OzZs8YXXvg46tSFY3MrKiomAPDjvb3NloSUdTq9PtnT3e2duY8/+tukSZMK1S6KiNTBAEjURH3//fexG7fvvHHX3gMzNZDt1K6HXEqlsGLDC/945uPo6BYH4+Pjq9UuiIgaFgMgUROzfPlyw879h67ftGXLY4DoDsBT7ZrIRUmcaxvbek27mDbz3n//jTS1yyGihsMASNREZGdne9x59929c/JLHq+prRkCwAf8Hqe/JwGYIUVucHDQq1NvHL/6gQceyBNCWNUujIiciz8ciBo5KaXuhx9+6DTvy29uzcm5fC8gAtSuiRohiTorsHva1Fu+HNy/75qEhIQKtUsiIudhACRqxF789FOv04eO3H/0yLFbJURnCBjUrokavQJfH9+1A67p9+mHr79+VAgh1S6IiByPAZCoEfrqq6/83v/o08EmiLkWi7k7IIzg9zM5jkVK5Pn6ei/zc/P+cPPmtdlCCLPaRRGR4/AHBlEjkpqaath3KLH/m+++c5+AGMt+fuR8InFg//4Lho8atvb2G2/MVLsaInIMBkCiRuLBf/6z1Zmk1FkXL168EUKwrQs1pFKrFQdGjxr53uB+vbZMnjzZonZBRFQ/DIBELkxKqXniiScCtu8/OLGsvPIZSNlSCKEHv3ep4UkJFHq6u/9SXVn68bpVq1Latm1bq3ZRRGQf/hAhclFr1qzxPnws6bofVq6aASESABjVrokIACDl5dCwsE8enHnPj7fccsM5to0hanwYAIlcjJRSPP74M1137N0zu7yqchwgQsDvVXIxUqIGEod79+yxdEDvbosffvhhrgYSNSL8oULkIqSU2iNHTkTe98gDs0rLym4XQASE0KldF9HfkJCo0um0u2+56aY3b7pnxqFOISHsH0jUCDAAErmAlStXhq9cvX7MkcTEB6RAT7XrIVJMotAC+eOzcx7/wtPTcJQHRYhcm1btAoiaMymlKCqrunb+V9/8Kzs3524IRIN/MaPGSMBDI0TP3fv29k+7mOkzbeqt57Zv387VQCIXxR80RCpITU01HE1J6fju+588WFVVNRECgQA0atdFVH9SAqgRQnOmS6e4V99+9eXN0dHRpbxRhMi1MAASNSAppfhh9erW777zweTS8vJZAFqpXRORE1VDYt3kG29Y3DVu+LbJk+Or1S6IiH7HAEjUQB577DH3zILiW44lJ0/TSAwE27pQ82AVQKa70WvV4AHdP/3oo4/Oql0QETEAEjlddna2x8efLeq24qefntNoNdcA8AS3e6mZkRImabGc9/fzXfTpws++7RMXl8f+gUTqYQAkchIppWbewsW9Pvjok2lCI6cACFK7JiLXYN3Zo1v3T265YfzWSZMmFapdDVFzxABI5AT33XdfSOqFS7flZOdOF5BdwBP3RH8mARRYNGLLrTfd8Mmrzz67V+2CiJobBkAiB5FSioKCAq9pM+8fee7cqae1On1nCeEOfp8R/RWLVqvNCQ0JWnrP9Nu/mDp1aroQwqx2UUTNAX8wETnA8uXL3fcdTR64dt0vdwiByULAoHZNRI2IBHDay9v902eeeWbV5Ouvz1K7IKKmjgGQqJ6+WrYs+r23332k1iQnQMhW4AEPIrsIKauskFt69ei6+Lmvv17fSYg6tWsiaqoYAInsIKUUhw4dCn3mhRduKiwsmVVdU9MOEFz1I6o/K4DS0JCQDfED4l+/e/qUM23btq1VuyiipoYBkEihDRs2BMxf9N2gE6ePPyYFBoErfkTOICWQbRXyqydmP/jD/XfffVztgoiaEgZAIgUefWLugI2/bZllMZtHQyAEEPweInIuk1XgSEBs7KI3n/vHyoQePUrULoioKeAPL6KrkFLqPl+8uMXKFavuzMjKuscqZYgAdGrXRdSMSAAV/r6+B8LCg9/87IMP9kZERFSpXRRRY8YASPQ3li9fH/bSK/+6sU7U3ieAOHC7l0ht1ZDWL8ePu+7bvj16HJk8eTIPihDZgQGQ6ArOnj1rnPPUUyOPnzx7p06vv04I4aF2TUT0H2ZAnq2rql7x2svPz5s6dWqu2gURNTYMgER/kpoqDfMXP9XqaNLxF/Mu54yCEH7gLR5ELkkCNR7ubsnBIcEfvjz36Q3x8fFFatdE1FgwABL920effx73wfwvbtJZrPcAMhL8/iBqLExSYlP72C7vv/PG3IMdOnQoV7sgIlfHlQ1q9n7Zv98numX05MVLlv5LY5WTAQSA4Y+oMdEKgbYFxbkJqSfPtJhy85TMbdu25KldFJEr4w85arbS09Pd7pk9u39ZafmTxaXl8QLwBb8niBq7OgGR3apV1Ps3T7n5h7unTMkXQljVLorI1fCHHTU7UkrD7Dlzum7asm0qoLkfAm5q10REDmcGcMRNq5n3+acfreP7gUT/jQGQmpWvv/46cM+hIw9t27n7JgDtBaBXuyYiciIpS0PDQlcPHRT/1cvPPbdHCGFWuyQiV8AASM3C5s2bfd/78JORmbl5c2pqa7sLwF3tmoiooUgzgLyI8PBVnbt1fu3jN9/MYxCk5o4BkJq0pKQkzxf/9a/eqafPPwFgJACj2jURkWqktOJcRVnRvDmzH1/z5JOz09UuiEgtDIDUZL344msdEk+m3HPi5OlJAKLVroeIXIMAqiRwYOrNN30w5JoBmxISEmrUromooTEAUpMipRTz5s3z/GXz1olnzqU/LzSIAlf9iOgKpJS5/v5+68ztYt89snDhaZ4WpuaEAZCaDCmleOeDT/sv+OqrOQJyHMDTvURkk+yY1tHPzJx67/rJk0fztDA1CwyA1CRs27ZN99CcOTeZLGIugM4ANGrXRESNiSyqrqr6ftzIYe9+9tlnaWpXQ+RsDIDU6K3btcv/5bnPPVBSVvoQIMLUroeIGicJ1AppTRx17fC7PnrnnVPcEqamjAGQGrWNO3a0fPDhx17XSEwGe/oRkSMInBuRkPD0k4889EtMTAwPiFCTpFO7ACJ7bdy4Mea55158RSMxBdzyJSJHkYjdsnXb29Jq9ZZSfiOEkGqXRORoXAGkRmnTph1tn/3XC2+WlJSNBWBQux4iapIKRw1LmP3R+++sYONoamoYAKnR2bhxR8vZTz76OSDGqF0LETVxUuYOSxjy5NOPPbKC28HUlHALmBqVDRs2BPzzlRdfAMR1atdCRM2AECFbd+x8HhZZLKVcz+1gaiq0ahdAZKu1a9d6vPjGW4+XlpXdI9jcmYgahgDgn34po/e59HMbDuzdyz6B1CRwC5gaBSmlNrZ9/1k6N9OrAPzUroeImh8LsPX2u6bPeOnRRy+pXQtRffHkJDUKH8yb10XnZnoSDH9EpBId0D9x7/4Hzp4966N2LUT1xRVAcnnz58/3/WjBV0tNprpxatdCRM2bBPJbRoQ/+Nuv637k+4DUmHEFkFza2bNnjQcSjz9oMtUlqF0LEZEAgjOzL7+yc+fOFmrXQlQfPARCLq2qStdr175dzwmBSLVrISL6t6A9+w7Uvff2m9tWrFjBVUBqlLgCSC4rOzvbY/uBnTOEQHu1ayH1CSGg0Wj+8z8h+AYLqaeopHjyiTNnBqpdB5G9+AlKLmv4hAmDMtIzNgJwV7sWangeHh4IDQmBn68P/P39EBgQAB9vb+h0OlgsFlRUVKCgsAjFJSUoKi5GQWERysvL1S6bmg+LFPj+4zdfe3j06NFsDUONDhtBk0s6fPiw/r5Hn3gYDH/NihACrWOi0bd3L3SOi0Ob2NYICw1BYEAA9Hr9/3y9xWJBUXExsrIv4+KlDBxLTMKho8eQfuECLBZLw/8CqDnRCiuGr1m3oR+AX9UuhkgprgCSS5r73MtDfly9epkQCFe7FnI+nU6HmOhWmDr5Zgwc0B9BgQHw8PBQtM0rpURlVRUKCwtx6MgxfP3td0hLvwCzmVe4ktNISPnNxp9/uo/XxFFjwwBILmfjxo2es+c8+SG02jsBwYNKTZhGCLRv1w633jwJY0ePhre3l8OeXVFRgXW/bsTKNT8j5XgqpOS7+uQUNR2iY/r9/PPKZLULIVKCW8DkckwmUwep1fUTPKXepHm4u2PEsKG48/bb0Cmuo8Of7+XlhVtumoRePbpj4eKvsXnLVlRVVzt8Hmr23Kw67W0AGACpUeEPWHIpUkrN/Y8+OaG8vOw28M9nk+Xt5YVZd9+FWTNnIKplS6ed6BVCIMDfH7179oSXlwdOnj6Lmhru1JFjVZRXeL305ms/rV+1qlLtWohsxTYw5FKKi4u9MzMzbgRgULsWco7QkBC89OxczJo5AwEBAU5v5/J7CPTDPTPuxBsvv4Cw0FCnzkfNT21dXVR+RvZotesgUoIBkFzKkiVLQiBEX7XrIOcIDQnBww/eh5Ejhqsy/5BB1+DxRx5CRHiYKvNTEyXgc+RYct/09HQ3tUshshW32MilWDS6SaVl5TepXQc5nqeHB+69605MmjgebkajKjUIIRDdKgp6vR5JySmoratTpQ5qcjQFBfk1fXt237506VL2BKRGgSuA5FIq60zXq10DOZ4QAjdMGI87bp8Kdzd1F0mMRiOmTL4Jt0+5RdU6qIkRolPy+fOt1S6DyFYMgOQy7n3jDd+c/IIOatdBjhfXsQNmTL8NWq1rbDro9XrccftUdGzPWwbJYfw/W/BVOyklf65So8A/qOQyAivr4rRWq6/adZBjeXt7YdrUWx12+MJR/fz8fH1x/70z4enp6ZDnUbOn0VrNPTMzM9V5v4FIIfYBJNchZGfBq9+aFCEEhgy6BgmDroHOztU/KSWKi0uQk5uLsvJy1NTUQK/Xw93dHQH+/ggPC4XRzncK+/XpjdEjR2DVz2thtVrtegbRHwQ03Tw8PPQA2HCSXB4DILkMjZDREIKn6JoQb28vjBo+DH5+forHSilRVFyM7Tt2Yfe+/Ug9eQq5eXmoqamBRqOBn68vWkW1RO9ePTB86BB0jou74n3Bf8fXxwfDhw7Bzt17kF9QoLhGoj8TQOsff/yRLayoUWAAJJeQmppqmPngo5EAlP0EJ5cW1aIFBg7or3iclBJnz5/HG++8j+TjqSgvL/+vf2+1WlFUXIyi4mKkpKbi141bcNPECbj7rjug02pt7i0ohEDvXj0QEx3NAEj1J+D784YNYQD4h4lcHt8BJJeQlpbmU1hY6A/eT92kTBg3VvE7diaTCTt27cY9D8zGnn37/yf8/V9mswWZWVn4cN5neO6lV5CXn6/oPUFfHx9cP5Y9fMkhhMWqiVK7CCJbMACSS6jTaDwF4KV2HeQ4RoMBA/or6+lttVqRkpqK9z76FDm5eYrGSinx66Yt+Hrpd6ioqFA0Nr5/P5c5oUyNm5Bgl3FqFBgAySVIq9VdQPIASBMSEx2N4KAgRWMqq6qweMm3OHPunF1z1tTUYPlPq3H46DFF4yLCwhDTqpVdcxL9mQQC1a6ByBYMgOQS9FarAUKwfUIT0rVLJ8Wnc/cfPISNW7bWq9VLeXk5Pv5sPuoU3PKh0WjQvXtXu+ck+oPQSG+1ayCyBQMguQSzEDorDyU1KVEtW0Kns/23VEqJNWvXO2TuM2fP4cTJU4rGtG3NSxzIETT8iyw1CgyA5BJ0UqsB/zw2KSHBwdBqbP8tLS4uxqnTZxwyt8Vqxf6DhxSNCQ8Pd8jc1LxJSP5FlhoF/sAlIoczGAzw8HCHRkEAvJiRgapqx/TPtVqtit8j9Pfztbl9DBFRY8cASEQOp9PpFJ+qra6ucehtHOUKTwLr9XpFW9ZERI0ZAyAROZzFbIbFbFY0RqfTObQLpJtR2aUyFosFZoU1ExE1VgyARORwtXV1qK6pVXSaNzIiHG523un7fwkh0CpKWT/e2rq6ep0+JiJqTBgAicgp8vLzYbZYbP76sNBQtIiMdMjcWq0WPXt0UzTm8uUch8xNRNQYMAASkVNkZWcr2gbWarW4dvgwh8wdGBCAvr16KRqTlZ3tkLmJiBoDBkAicoqklOOorbW9GTMAXD/mOnSK61iveQ0GA+6deSc8PT0UjTuSmFSveYmIGhMGQCJyirT0dBSXlCga4+3thbvvnI4QhVfI/UGj0WDIwIG4dvgwRS1dampqcOr0abvmJCJqjBgAicgpqqtrcPDIEUVjdDodhg66BtNuuxXu7spO8QJA505xeODeuxEUqOw61sSUFJSVlSuej4iosWLTKyJymjVr12P8mOvg5mZ7mPPw8MA9M+5EaGgoPv1sAbKys696mMTbywt9+/TGS8/ORVBgoKLVP7PZjJ/X/dqgJ4B1Wi28vLzg5u4Go8EArVYLq1XCarWirq4W1dU1qKishEXBIRoiIiUYAInIadLS03HkWCIGDuivaJwQAuNGj0J0yyis37gRe/cdwPn09P9pFO3t5YVePbtj6KBBuO7aEfDz81Nc47m0NCQlJysep5TBoEeb2Fi0axOL6Fat0CIyAoEBAfD29oab0Qiz2QyT2YyysjIUFhUjMysLFy5exOmz55CWlg4TexQSkQMxABKR05SUlmHDpi3o1rULvDw9FY3VarXo1rUz2rRpjZsmTsDFS5dwPv0CSkpKYTQaEBYWhtiYaLSKaonAwEDoFN48AgBmiwW79+5HRlaW4rG28nB3x4B+/XDD9WMRGxuDoMBAeHl5XfWaPKvVivLycuQXFOJ8ejpWrl6DA4eOoKamxmm1ElHzwQBIRE5jtVqxdcdODB40EMOHDlF0N/AfPD080LZNLNq2icUI4D9btX9s89bn/t7Tp8/gpzU/Kz6tfDVCCAQHBWHY0CG447YpiG4VBSGEolo1Gg18fX3h6+uL2NYxGJEwFGkXLmDxkm+xfdduFBYUgm2richeDIBE5FQFhYX47ocV6N2jO/z9/e16xp+DU30C359JKbHip9U4n5bukOf9Qa/XY2D//rjl5kkYFD8Aer2+3s8UQkCr1aJtbCxe/OdcbN2xEz+sWImDh49wa5iI7MJTwETkdAcPH8HKNWvVLuO/7D94CGvWrXfoM7UaDWbeMQ0vPvsMhg66xiHh7//S6/UYkTAUrzz/LKZPneKwQExEzQtXAInI6cxmMxZ+uRgtIiIwPGGIU4KRraxWK06cPIVX33oHVdXVDntuZEQEHnnwPowZda3Tf31arRaRkRF47OEHERPdCh/PX4Dc3DynzklETQtXAImoQZSUluKTzxfg8NFjqrU3kVIiIzMLH8373KFbvxHhYXhyziO47tqRDRpu9Xo9xo8bgycemY2QkJAGm5eIGj8GQCJqMOfS0vDGO+/j7LnzqsxfVVWNt97/EHv2H/ifljL20uv1ePzh2RgxdAgMBoNDnqmE0WjE6JEj8OiD99t1yIaImid+WhBRg5FS4tSZM7j/0TnYsWtPg7U0MZvNOHXmDB5+4kls2boNZgcdnPBwd8fjDz+EUSOHq7qtbTAYMH7sdXjovnvhZjSqVgcRNR4MgETU4LKzL+PFV1/H0u+Xo7S0zKlzWSwWbN66Dc++9Ar27DvgsOdqtVqMHJ6A68dep2r4+4Ner8eNE8dj0DUDeTCEiK6Kh0CISBXZly/js4WLkHriJB6cdQ/axLZ2+BxFxcX49vvlWL5yFfLy8x367LCQYNx26y0IDAhw6HPrIyQ4GLfdMhkpx48jh4dCiOhvMAASkWoqKirx66ZN2H/oEK4fMwYTx41Bq1ZR8HB3t3sVq7a2Frl5+di2YyeWLf8RFzMyHPa+359NvWUyunbuVK/VNiklamtrUVv3eyNqvV4PN6PR7nf5NBoN+vXphRsnTsSn8xfYXRcRNX0MgESkKimBoqJifL30W2zZuhUJQwajV4/u6NSxI1pERkKrvXoYklIiv6AAJ06dRlJyCvbsO4Dk48f/c2uIo7Vs0QLjx15nd/gzmUw4eeo0Tp4+jQsXL6G4uARWSPj4+CCqRQt0aN8WXeI6wd3dTfGzNRoNbp40EctX/oT8ggK76iOipo8BkIhcRlb2ZXz7/XKs/3UjIiLCcc2A/pgx/Xb4+/n97bgNm7fg2++X41JGJgoLC2F2cpuZcWNG232rSVb2ZXz59RLs2X8AOTk5qP4/B2EMBgNCQ4LRvWtX3HvXnWjXto3iOYKDAjH62pFY8t0yu2okoqaPAZCIXIqUEsUlJSguKYGb0YjJN95w1QCYfuESEpNTYDKZnF5fRHg4Bg+Mh06n7OOzrq4OW7Ztx0fzPseFi5f+cnWyrq4OGZlZyMzKxsHDh3HPXXdi0oTx8PTwsHkurVaL0SOH49eNm1BQWKioTiJqHngKmIhIgc5xHdEqqqXi7d8tW7fj9bffQ/qFizZtTUspkZuXjw8/noflP/6k6D1GIQRaRkagU1xHRTUSUfPBAEhEZCOdToc2sa3h5+uraNyZc+fw8ecL7DqJXF5ZiS++/gYHDh1WNC4gIADt2rZhc2giuiJ+MhAR2cjXxwed4zpCq9XaPKasvAILvliM9AsX7J43v6AQny/6Epdzcmweo9Pp0KFdW0j4d9QAACAASURBVPh4e9s9LxE1XQyAREQ28nB3R4vICEVjjqem4vDRY/U+kXzi5CkcPHzE5q1gIQRaREbCy8uzXvMSUdPEAEhEZCM3NzeEhoTY/PUmkwmpJ04iN6/+TZnLysuRmJSM6upqm8cEBwXCzU15KxkiavoYAImIbGQ0GuGr4P2/qqoqHD950mGNqE+cPoPyigqbv97Pzw9G3g1MRFfAAEhEZCNPTw9Fp39NJjMKChzXhqWgoOA/t4bYwt3NTXG7GiJqHhgAiYhspDRMSUhYHNiU2mQ2K3qXUKPRwP6L6oioKWMAJCKyUU1NjaIAptVq4evj47D5/Xx8oNfaHkJNJpNT7kEmosaPAZCIXJLBYEBQYIBNq25enh5wb4DDDlVV1aittX0L1s3NDa2iohw2f1TLlnB3d7f560vLyhRtGRNR88GXQ4jIZeh0OnTt0hn9evVEp05xaNWyJQJsuHN35PAEREdH4czZ80hKTsbBw0dRUlrq8Ppqa2tRXFKM8LAwm77ezWhExw7t4OHhjqoq20/vXolGo0HnTnGK2roUFxejtra2XvMSUdPEAEhEqvL08EBUVBSGXBOP68dch4iIcOh1euh0WpsPXISHhSEsNBQD+/eHyTQZ1dXV2LV3H9Zv2ISTp04jv6DAIVuhlVVVyMjItDkAajQa9OrRA13i4nDg8JF6zR0bE4P4/n2h1+ttHnMpIwvl5bafGiai5oMBkIhUYTQa0bVTJ4y6djhGDR+BkJCgej1PCAGtVgutVgs3NzeMHzsGo0aMwPETqVi1Zh327N+Pyzm59WrIXFFZgbQLF9C3T2+bx7RoEYmJ469HSuoJVCno4fdnep0OY0aNRIf27W0OxVJKXLh4ERUK2sYQUfPBAEhEDS4kOBh33TENw4YMRovICEVXqylhNBrQs3t3tG/XDsdPnMCKlaux7tcNdj+vuroGlzIyYTabbT4RrBECo0YOx7HEJCz/aZVd8/br0xu33nwTDApW/yoqKnD2fBrfASSiK2IAJKIG4+HhgWsGDMBjDz+AqBYtGqRHnRACXp6e6Ne7N7p16YL4/v3w1ZKlSEu/YHOLFo1GgwB/f9ww/npMn3qr4sDq6eGBR2c/AGgE1v+yAZVVVTaNMxqNuGZAf/zjqccREHD1dyH/IKVEZtZlpKSeUFQnETUfDIBE1CCCgwIxY9rtmDRxAvz9bL9Nw1GEEHB3c8MN48ehY4d2+OLrJVj/68arbgl7eXpi0DXxuGniRAzo3xdajX3NEwIDAjBn9oNoExODFatW49z5tL+du0VkJMaPHYPJN92A8NBQRXNJKZGYkoL0CxfsqpWImj4GQCJyuqCgQDzzxOMYMWwo3FS+mkyj0SCuQwc88/hjcHdzx6qf18JsNl/xa2OiW+H+e+7GwAH9EBgQoOgWkCvx9/PD1Fsno2ePbtiz7wB279uPkydPoaKyEsDvbWPatYnFgH59MWhgPLp0irPrLl+z2Yyf1613aBNqImpaGACJyGmEEIhtHYOn5zyK+AH9oXPSu372CA4KwpOPPYzQkBB8vfTb/9yxK4RAZEQErh87GpNvuAFhYaHQ2LnqdyV6nQ6d4+LQsX17TJtyK+rqalFRWQmrlPD28oJBb4DRaIBOp7MrcEop8dv2HUhMTnFYzUTU9DAAEpHTREW1xDNPzMHA/v0cGqIcxdfHBzOm3watVoNPPl8AL09PDOjfF3fefhu6denstJqFENDpdNDpdPD09IC/Db0ObZWbl4dvvl3GG0CI6G8xABKRU3h6eOCxhx5w2fD3By9PT0y/bQqsVitatojENfEDEODvX+/tXjXU1tZi1c/rcOLUabVLISIXxwBIRA7n4e6O2ffPwrChQ1w6/P3By9MTs2bOgEajcVpLGmezWq3YvXcfli1fgZqaGrXLISIX5/qfzETUqOh0Wlx37QiMHzcGRoNB7XJsptfr7Q5/lZW2tXVxpnPn0/Dex/OQm5evdilE1AgwABKRQ0WEh2P6bVMRGBCgdilOV1FRgRU/rcIb776P7Ms5qtVx6VIG3vngY5w7f161GoioceEWMBE5jFarxcw7pqNd2zb1fpbFYkFJSSmyLucgMTEJiSnJyMzKRmlZGQQEfH19EdUyEj26dUW3rl0QHhoGPz9fp285SylRXV2DxOQkzF/0FY4lp8BkMiEvPx9zZj+Itm1iG2zb22q1IvXkKbz/0SfYd/BQg8xJRE0DAyAROUyPbl0wZvSoegUgKSVy8/Kwe89+rN+4EYnJKaj6i5szEpOT8fP6X+Hp6Yle3bvh+rFj0L9vbwQHBTnlEIfZbMaZs+ew9pcN+GHlT6j8d/8+ANi+cxdKS0rx6OwH0KdXT6e/S2gymXHw8GG888FHPPRBRIoxABKRQ7i7u+PGiRPh6eFu9zMsFgsOHDqMb75dhoOHj9h8ZVplZSV27tmLxOQU9OnVE3fdMQ29e/awu44rqampwbLlP2L12vU4l5Z2xebRx5KT8dJrb2DqLTdjwtix8PHxdmgNfygpLcVPq3/GshUrcSkjwylzEFHTxgBIRA7Rs3tX9O3dy+7Vv6rqavy0eg0+/mw+SsvKr3pF25WUlZdj646dOJqUjKcfewSjrx0Bd3f7Aynw+3t+x5KSsXDx10hMTEZtXd3ffn1a+gW8/f5H+G3bDtx/z0zEdWgPT0/Pem8LW61WVFRUIDn1BD5bsAgpx1OvWgsR0V9hACSiejMajYjv3w8R4WF2bb2WlZfjux9WYP6iL1FVXV2vWqSUKC4uxhvvvoei4mLcOvkmeHp42PWsjMxMLPzqG/yycSPKyytsHldbW4t9Bw4iKeU4rh2WgEHXxKNHt24It+NWEYvFguycHBxNTMKOnbuwdcdOVFezzQsR1Q8DIBHVW4C/H+L72dfw2WQy4deNm7F4ybf1Dn9/VlJahi++XoKAgADcMH6cXc84l5aOlavX/OVdwVdTVVWF1evWY9vOXWjXtg3iOrZHz+7dEdexAyLDw//yPUGz2Yys7Ms4nnoCx5KScPL0aZw+c+4/19UREdUXAyAR1VtMq1Zo366tXWNTUk/gw08/Q3FJiYOrAgqLivD2+x+gc6c4tI1trXh8j25d4eHujrLy8nrVUVpWhkNHjuJoYhJW/LQGRoMBvj4+CA0NQXBQEIzG3/sl1tTUIq+gAHm5eSgrL0dtXS1qamp5rRsRORwDIBHV28D4/nadei2vqMAnny9AYVGRE6r6XWFRMebNX4iXnp0LHx8fRWP9fH3Rq1cPbNu+0yG1WCwWVFVVoaqqCsUlJbhw6ZJDnktEpBQbQRNRvfXt3duucTt3/35y19kOHj6Cg0eO2jW2V/fuDq6GiEh9DIBEVC++Pj6IahGpeFxpaRk2btnyX730nKWwqAjbduxEaVmZ4rHdunRutPcDExH9FQZAIqqX1jHR0Ov1isedTUvDydNnHF/QFUgpcejwUeTl5Ske6+/nh5DgICdURUSkHgZAIqqXyIgIxStkVqsVGRmZyGnA+3Mzs7ORkZWteJybmxFBgYFOqIiISD0MgERUL4EB/orbv5hMJly8dAl1JpOTqvpfFosFZ86eVTzOaDQiICDACRUREamHAZCI6sXX10dx82eT2YxcO7Zj6ysjM0vxGJ1WB3c3NydUQ0SkHgZAIqoXNzc3xQHQarGistK2e34dyZ4bNDRaDQwGgxOqISJSDwMgETU4IQT0uoZvQ6rRKL+mDsqvJCYicnkMgERUL5WVVZBSWUrSajXw9vF2UkV/zd/PX/EYi9WCmhrevUtETQsDIBHVS1l5OawKA6Ber0dEWLiTKvprraJaKh5jNltQzQBIRE0MAyAR1Ut+fr7iu2p1Oh2io6Pg491wq4Du7u7o0L6d4nG1tbUoLHTeVXVERGpgACSierl4KQMWs0XRGCEEWsdEIzq6lXOKuoJOHTsgLDRU8bjq6mpVTiwTETkTAyAR1cvFSxl2vSPXMjISXTt1apBr1nRaLfr06ongIOUNnfMK8lFSWuqEqoiI1MMASET1UlVdjTPnzikeZzQaMWHcGAQ2QJPl6FatMGzoELvauSQmpcBiUbbCSUTk6hgAiaje9uzfb9e4rl0644YJ4xT3EVRCIwQmTbgeneM6Kp5HSon9Bw85qTJAo9HA3d0dvj4+8PHxhrsdPRWJiOzR8I24iKjJOXTkGKprauy6MePWG2/E0WOJOHTkmBMqA/r06oWbbpio+Lo6AMjNy8fJ06cdVotOp0VUyyh0juuI6KiWCAkJhoeHJ4wGPaQE6kx1qKioQF5+AdIvXsKJEyeRkZkJM1cgicjBGACJqN6ysrNxLCkZ8f36Kh4bFhaKRx58AK++9Q5OnT6juKfgXxFCoFPHDnhqziPw9fWx6xlHExNhtdavHnc3NwQFBWLUiOEYMSwBEeFh8PDwgNFghF6v+58VPyklTCYTamprUVVVhczMbGz87Tf8tm07CguLUFNbW696iIgAwPlvXxPZYMqU2yI2bds2UQAhatdCytXW1sHXxwd9e/eETuENH0IIREaEI7Z1NM6eT0NeXn696xEA+vTphWcen4MunTvZva0aER4Gg16PwsJClJaVKQqnRqMRvXv2wF13TsMzcx7D8IQhCA8Lg5enJ4wGA7Ra7RXrEkJAq9XCaDTCy8sLERHhGBQ/AONGj0ZoaChqa2uRX5APi0VZ6x1qGP7+/vvOnTq5Se06iK6GAZBcAgNg4yalhMlsRp+ePREYaN+hjsiICLRv2wa5+fnIzMq2eyVQq9ViWMIQPPXYo4jr2KFe79QZDAZ069oF3bp2gUFvwJmzZ23ajo1q2QIzp0/DPXfdiYH9+8Hd3b1edQgh4OHhgS6d4tCnVw/4+PggMysb5eXldj+TnIMBkBoLBkByCQyAjV9RUTEiI8PRpVOc3a1dQoKDEd+/L8JCgnHh3+1lbD2BazQaENOqFR66717cfed0tGzRwiEHKrRaLUKCg9G7Vw9069IFly9fRmFx8RXr0ul0uGZAf7z07D+QMGQw/P39HHqoQwgBH29vdOvSBX169URWdjYu5+QqbsRNzsMASI0FAyC5BAbAxk9KiUsZmRg+dKjd79wJIeDp4YFuXbtg1IgR8Pf3g9FohFargclkhtlswh8LgxqNBt7eXohq2RLdu3bF5Ek3YO5Tj6Nv717w8PBw4K/s97oMej2iW0VhRMJQBAcHIzc3D8UlJf9ZqfTx9sakiRPw4j+fQYvIyL/c4nVELTqdFqEhIRg2ZBBKy8pw8VIG6urqHD4XKccASI0FD4EQkcNkZGZh+cqfMOfhh+w6dftnoSHBmHnHNNw4cQIuZWQgOycHpSUlqKr+vem0p4c7/Pz8EBkRjpaRLeDj490gLVR8fX0x9Zab0aVTHFavXYdfNmxEncmM26fcgum3TYGXl5fTa/iDt7c3Hn3wfvj6+GLJsu9RVVXVYHMTUePGAEhEDrVm/S/o06sXBg0cUO8QKISAv58v/P180a1LZ0gp/7PdqdFoVOuZpxECXTt3QpvWMbju2pE4c+48bhg/Dp4OXnm8GiEE/P39MWvmDJjNJixe+h2bVhORTRgAicih8vLyseDLxWjRIgKto6Md/g5cQ1wdZwshBDw9PdG3dy/07d1L1Vo8PT3w8AP3IS+vAL9s2sQQSERXxZtAiMjhkpKT8cXiJaiqrla7FJs19tBkNBpxz8w70aVTnNqlEFEjwABIRA5nMpux9pdfseS7713+cIKUEhUVFXjyH89h8dJvkZ9fUO/mz2oQQqBN6xjccdsUu1vxEFHzwQBIRE5RV1eHBV98haXfL0dFZaXa5VyRlBI5ubl46bU3sX7DRrz+9nt44LHHsX3nLpSVlaldnmJarRYjhiVg+NAhapdCRC7ONV6moWaPbWCaJpPJhNNnzkKn06FTx46KbwlxttzcPHz46WfYsHnLf7aAc/PysP/gIVzOzUVIUBCCggIdfthESomKykokpxzHrt17sH3XLhw8fARnz6WhuroaPj7eMBgMds2r1WrRskUkVv28Dmaz2aF109WxDQw1Fq71aUxETU5BYSE+W7gIlVWVmDl9Ory8PFU7vfsHq9WKgoJCzH3hJRw6chQmk+m//n1hURFWrv4ZO3fvxYxpt2H8uLHw9fGBVlu/TROr1YrKqiqs37AJP/60Cjm5uaiqqkbdv+fX63Tw8PBAaGgIJo4di4njx8HLy1PxaeroqCiMGjEcq9euq1e9RNR0cQWQXAJXAJs2k8mExKQUpF+4iBaRkQgKDKx3ixh7SClRU1ODXXv34flXXsXRxKS/vEXjj1W6vfsP4NDho3B3d0NEeBiMRqNdc5vNZiQmJ+OVN97C0mU/IDcvD1VV1TCZTLBarbBarTCZzaiqrkZ+fgH27N+PpJQURESEIzQ0FFoF/700Gg08PT2wbccO1Lr4O5hNDVcAqbFgACSXwADY9FmtVqRfuIiU46lwc3ND65joBt8SLiwqwucLv8SX3yxBWvoFm8ZIKZGbl4cDBw8hNy8PYaFhCA4OUjz3saQkvPzamziamGzTPcdSSmRlZyM19QRiY2LQskULm+cSQkAIDVJSTyAzK1txrWQ/BkBqLHgIhIgajNVqxcnTp/H6O+/h6WdfQFJyCqpramwKRPWZs7S0FBu3/IaHHnsSS5Z9j+zLOYqfU1ZejrW/bMDBI4cVj72ck4PX3noXp86cVTz27Pk0vPbWu8jMzFL03ykkJBhxHTuovt1ORK6J7wASUYMrKyvDr5s2Y8fu3Rg9ciSuHzMabdvEIjAgwGFbwyaTCdmXLyP1xCks/f4HHEtK/svtXlt5enoiplUrRWOqqqow/4uvcPLUabvnPZ+ejo/nL8CzTz8JbxuvmjPo9ejYrh18vL1R2ghPNBORczEAEpFqqqqq8dOan7Frz1506RSHvn16o1+fXoiNibHrXTspJUrLypB64iT27j+AY8nJOHHyFKr/fX9wfXl5eSI6KkrRmBOnTmPv/gOw1CN8Wq1WHDx0GCnHUxHfv5/N41q2bAEvLy8GQCL6HwyARKS6/IICbN2xE/sOHoSfrx/Cw0LRtUtnXBPfH3169oSbm9vfjk9Lv4B9Bw7iyLFEnD2fhqKiIpSUljq8DYq7uztCQ21/TdVkNiMxKRmZmVn1njsnNw9HjiWiV88eMBoMNo0JCwuFp2fD3k9MRI0DAyARuYzq6hpUV+fgck4OjiYmIeV4KmJebYUWkZF/O27NuvVY8OXiem/xXk1wUNBVw+ifVVVWIvl4ar1W//5gtVqRknoC5eXlMAYG2jQmKCAAbnaeWiaipo2HQIiIbOTl6ano62vr6pCTm+uw+XPz8lFba3tbF71ezwBIRFfEAEhEZCOlYUpapUP78NVUV8NqtSgaY2/fQiJq2hgAiYhspDTMCY1G0Zbx1Xh6eUCrVfbmDhtBE9GVMAASEdmooqJS0dcbjQa0iIhw2PzhYeGKViFNJhNqahxzApqImhYGQCIiGxUWFaJOwYqap4cHOsV1VHSN218RQiCuQ3t4edvWBxAAioqLUVNbW++5iajpYQAkIrJRRWWlokMdOp0OvXv2QOvW0fWeO6plS/Tv0xsGvd7mMZdzclBVWVXvuYmo6WEAJCKyUUVlJS5cvKRoTLs2sUgYPLhe9x5rtVoMuWYg4jp2UDTuUkYWyisq7J6XiJouBkAiIhuVlZXj1Jmziu7kdXNzw/SptyKuQ3u7523TujXuuuN2uLu72zzGZDLj7LlzKCsvt3teImq6GACJiGxUV1eHlOOpKCouVjQuODgYb7zyMnp276ZoJVCr1aJr585469WXER4WpmjO3Lw8JKemKgqrRNR8MAASESmQeuIkLmVkKg5WMdFReOGfczFh3BibevMZ9HqMGX0tXvjnM2jbJlbRXFJKXLx0CSdOnlY0joiaD14FR0QuR6fVQm8wIDIiwqY+ejq9HgaDAXV1dU6/Du5ybi727tuPzp3ioFewmqfRaNC+bRs8NedRDB08CN/9sALHU1NRU1v3nzAphIDBoEenjh1x6803YUC/PvD384MQQlGNFosFW7fvQFlZmaJxRNR8MAASkcsIDQlB57iOGBQ/AEMGD0JEuG3bnvfOuAODB8Zj+85dOHz0GNLSL6CgsNApNVqtViz7cSVumDDe5vr+IISAn68vrh0+DCOGJaCgoACnzpxFXl4egN/vGm7frh1CQoKhURj6/uxSZhZ+XLXG7vFE1PQxABKR6vz8fJEweDBGjRiGPr17Kb5z12g0oluXzujSqROKiopwLCkJv2zcjN379qGszPGHIPLzC7Dip1WYff8saOzs8acRAiHBwQgJDnZobXV1dVjy3ffs/0dEf4sBkIhUo9Fo0KVTHGbfPwtdu3SGj7e34u3O/36eQFBQIEYMS0Dvnj1xLCkZixZ/g2NJSQ7fGl77y68YNHAAenTrVq+aHUlKid37DmDL1m1ql0JELo6HQIhIFUGBAbhnxh344rNPMWhgPHx9fBwWpIQQ8Pf3w7Chg/HV/E8xa+ZdCA1x7EpbRmYW5i34AllZ2S5x0lZKifNpaVi0+Gvk5eerXQ4RuTgGQCJqcOFhYXjysUcw6+674K3gajN7GI1GzLp7BuY+8TjatG7t0GcfOHQYS77/QdH1cM5SU1P7+2pnYpLapRBRI8AASEQNKjgoCM/PfQpjR4+Cp4dHg8zp7uaGkcMT8NrLzys+uPF36urqsHzlT/hx9RpYnHz6+K9IKWEymbF02Q9Yv2GT009BE1HTwABIRA2mVVQLvP7Kixg6eBD0Cu60dQSdToeunTvjw3feQsf27R223VxVVY33P/oUS5f9gIrKSoc801ZSSpSWlmLewkWYt3CRS6xEElHjwABIRA3C29sL982ciX69e9l9cra+hBCI69AeDz9wH8LDQh323PKKCsxf9AW+/PobVFQ0XAgsLSvDx58vwDffLkNVVVWDzUtEjR8DIBE1iBuuH4cxo6+FwWBQtQ6dTodr4gdgxvTbHXp6t7CoGF9+8y3+9ebbyMnNg9VqdcrhECklrFYr0tLT8fzLr2L5ylWoqKhw+DxE1LSxDQwROV3PHt3x4Kx7bLrVoyEYDHpMnzoFBw8fwebfHNcypbq6Gqt+XoujiYm4a/o0DBs6GMFBQQ4LmlarFTm5ufh10xYs/W4ZsnNyHfJcImp+GACJyKkC/P0w7dbJ8Pb2VruU/zFj2m04dfoMMjKzHPrci5cy8Prb72L3vn0YNXw44gf0Q4C/v91B0Gq1Ii+/ADt378XmrVuxZ99+WCwWh9ZMRM0LAyAROVXvXj3Rv29faLVaxWP/2EK1WCwoKS1F+oWLKCkthZvRDZERYYiIiIBBr4cQwq5w1bFDB4wcloDFS79z+OnZmtpabP5tGw4dPoqoqBYYPmQIRl87EhHhYdBqtf9V8x///8evV0oJKSXMFgsuXrqEDZu3YNuOXcjIyEQ5t3uJyAEYAInIafx8fXHjxAkICPBXPNZqtSL78mXs2X8Aa9aux7Gk5P8JaaEhwRh33XUYOXwoOrZvr3iL2cPdHWOvG41tO3cj/cIFxTXaoqS0FCUppUhOScWH8z5HZHg4evbojrZtYtGyRSR8vL2h0/3+UWwym1FaWopLmVk4e/YcjhxLRE5urks0miaipoUBkIicpnVMNHr37KF4nNVqxb4DB7Hgy8U4mpj0l+1NcvPy8cXX32DTb79h0oTxuOO2KfBUeI9wu7Zt0LVLJ6cFwD+zWq3IyMpCRtb/33LWaDQwGg2A/H3VkGGPiBoCTwETkdMkDBkEL4WBzGq1YtuOnXjljbex/+Ahm3rbZWRmYcEXX+Gjz+ajrKxcUYgy6PUYPWK4ohodyWq1orq6BtU1NQx/RNRgGACJyCkMBgNGDhumaIzVasXO3Xvx2lvvKl6Rq66pwbff/4BP5y9ApcKGzNfED4Cfr6+iMUREjRkDIBE5RWzrGAT4K3v3r6ysDF8uWYrM7Gy75jSZzFi9bj0OHj6qaJzBYED3rl3smpOIqDFiACQip+jQrh30BmXXve09cBCHjygLb/9XSUkpli77XvF2aufOneo1LxFRY8IASEROEds6Bnqd7efMzGYzli1f6ZD+dgcPH0HqyVOKxnRo26be8xIRNRYMgETkcEIIhAQH/ae9iS1ycnNx8dIlh8xvsVpx+KiylcTAwADVr6kjImooDIBE5HA6nQ7u7u6KmjNfyshEXV2tQ+aXUiL9wkVFY/Q6PdzcjA6Zn4jI1TEAEpHD6fV6Rat/AFBVVQWL1TFtUKSUKCktVTRGq9XCoOcKIBE1DwyARORwFotF8dVqBqMRGjvvyr0Sd3d3RV9vtVph5v26RNRMMAASkcOZTCaYTCZFY8JCQqDXKzs1/FeEEIgMD1c0xmyxoKamxiHzExG5OgZAcglWrZQS4DUITYTVakV+QaGiE72tY6IRERbmkPl1Oh3i+/dTNKaktJQBkOpNSChb+iZSCQMguQQppVkDmNWugxwnO/syzGbbf0t1Oh2uG32tQ+aOiW6FznEdFY25eCnDIXNTs+eYk0xETsYASC5BY9GaIHH1S1+p0Ui7kA6TggAIACOHDUWrqJb1mlej0WDqLTfDaFR2ovfM2bP1mpcIAKBBtdolENmCAZBcgkZjrpaQ/OBsQo4lJqOivELRmPCwMDw2+0EEBQbYNadep8OkCddj9MgRisaZLRbs3XfArjmJ/otEkdolENmCAZBcQo1OVwEhlaUFcmll5eVIST2haIxWq8XggfGYeecd8PH2UjRWCIFBA+Nx1/Rp8PfzUzT2fFoacvLyFI0huhIpZY7aNRDZggGQXENFRQUgytUugxxrw+bNisd4enrilhtvwBOPPgIfb2+bxgghcO3wBPzjqSfQOiZa8ZwbN/+muG0N0ZUIKy6rXQORLRgAySVMnjy5etKE8VkAlPUOIZd28MhRnFB4Jy/wewi8edJE/LBkMW67ZTJiW8fAx8cbWq0WwO+BpzuVBAAAFVBJREFUz93dDeFhoRg0MB4fv/cW3nr1FbSIjFB0+wgAZGRmYev2HYprJLqC6natW6arXQSRLZS16idyIo3QpEGiFgKOaQZHqisuLsYvGzchNrY1jArv2dVoNGgdE41/Pv0E0i9cRMqJE8jJyUVFZSWMBgMCA/zROiYGXbt0hqeHh131mc1mbN+5ExczeAKY6k9KpL/wwgs1H374odqlEF0VAyC5DAGkAagGoOzlL3JZJpMZO3btwXXXjkCnuDi7nqHVatEmtjXaxLYG8HuPQY3GMZsXObl52PjbVlRV8fwR1Z/U4ExdXR3bWVGjwC1gchnSVHPUarXyPcAm5sy5c1j87TKUVzjmjI+jwp/VasWy5Stw6PBRhzyPmj1ptcr9oaGh7CZOjQIDILmM119/Pd/Hy/Oc2nWQ423a8hu2bt+pdhn/5WhiMr7/8Se1y6CmoyJhxNATQgheKE2NAgMguZTAgAC+jd8E1dTUYv4XX+LEKeUHQpzhUkYGPp732e+Hz4kcI33SddfxZVJqNBgAyaVEtYr5GQC3UJqg82npeOW1t5B68pRqLVeklLiUkYE33/0ABw4fUaUGapKsJpPpmLm6+rzahRDZigGQXMrzc1/OggBfymqijiUn472PPkFa+gVV5i8sKsL7H8/Dth07IaVUpQZqkirbxcYcnjBhAt9hpkaDAZBcSlSUb4XZKjYC4E/nJkhKiT379uNfb76Nc2kN2y4tO/sy3nrvQ2zYvAUWNn0mB5KQBQOvid+mdh1ESjAAkksRQpjeeOmFrRCSWylNlJQS+w4cxAOPPIbV69Y7/T282tpabNu5Gw/NeQI/r/+FN36Qw7Vt03rH8888k6p2HURKsA8guRwPgyZVWuUBIUQMAK3a9ZBzXLyUgVfffBupJ05h8qQJiG3d2mEtXgDAKiUyM7Pw66ZN+Pr/tXfnf1WXeRvAr/scdlwA11RSXBHXcknNsuOSSGGOlmWRo6ihBi5YWlmOMzVlqSAuKIKSqWX4ZFKouXVym56UNDU0xcTM3BBUUJbDOefz/NDMPL1mmiYVuM9yvf8AXhevl9/P9/J7c9/3mg9QUFhYaT+b6BcsYvRarTsE0a26tTuTiKrJ2JiJI3Z9+eViBRWkOwtVLaPRiLatW2HgwwPw+JDHEBQUeMc/s6ysDB9lfoKsLVuRc+w4ysvLKyEp0a/au2B58iMRPXoU6Q5CdCtYAMkhpaen+8xfkrLZYrGYdGeh6mE0GlG3ThAiwgfC9EBvNGnSGAEBAfD18fnNL4MigrKyMlwvKsb5Cxew78v/xaYtW3H23DnYbDySjaqOQG40a9LkuW2bPlmnlOLfLZNTYQEkhzUwMvKxvB9++hCAt+4sVL38fH3RulVLhLVti+AmjVG/Xl0EBgTA28sbXt6eqLBUwGKx4HpRMS7n5+Pc+fM4kZuLnGPfobiYGzGpWtgF8llSUkJMhMl0TncYolvFAkgOy2w2B8RMnvYBgHDdWUgfo9GIGv7+8Pfzg4enJzw8jLBZbbDarCgpKUXxjRuwWnn9KlU3Kez30EPxyUkJq5VS3FlEToebQMhhmUyma/0GDpx/9vzldkqpYN15SA+bzYbrRUW4XsQ/sSLH4e3ts6P7PR0/ZPkjZ8UdluTQNm7YcOlwzrE6BQWFXcD/sBCRQ5BLk2PHx4yLjv5JdxKi28VzAMmhderU6WbnTl2WQ3BSdxYiIgAVVqtaGhMd/a3uIER3ggWQHN4br03//sE+D04FcFV3FiJya9bAOkH/s2LJ/BSlFLeYk1NjASSnkLooca8BSAJQtddGEBH9J4KcoeERCSaT6aLuKER3igWQnIJSyhIz+tnlAvunACp05yEidyOljRs3mTV9+tSDupMQVQYeA0NOZWFqapPUlLSV5ZaK/uC/XyKqFnKtSeNGs3ZuzlqqlOKZQ+QS+AWQnMqkcePOxYwaMxWCbAA8eZ+IqpQIisJC2y5IXbzwPZY/ciU8BoaczqZNn1wpLS0/deibw/dAoQH4JZCIqkjTu4MXzf1r4vw2bZpd052FqDLxXDVyOkopEZFd/jV8openpi8ss1h6gSWQiCqPQFDcuEmjZenLFs8ODg4u1R2IqLJxCZicklLKHhsTc3Di2FHPAfgC3BhCRJVFJL9dWJu30hYnvcnyR66KX03I6c1buDAsNS19pkANA+CtOw8RObWrzYPvnrRg/pzM0NDQYt1hiKoKCyC5hBUrVtTckLV5Uu73eZMB1AG/bhPRLRCg3FZhOXB30yavmbds2c07fsnVsQCSyxARw/jnpw75fM/uKUrhPgBeujMRkeMTQVG9uvXSHrzvniVz5sw5rTsPUXVgASSXIiLGZ58d03J39lejfLy8JwPw1Z2JiByWDcART4NKWpw47yOTycSbhshtsACSS8rJyfF64dXZPQsLCmZcvXatJ4AA3ZmIyGFYAVxu1SIkZeijEWnR0dEXueRL7oYFkFya2WwOiHvxxaGWMlsMDKozuCxM5M5EgCteHmpT3z59Vy5KnLtHdyAiXVgAyS0kJS1tvzRt2RN2ZXwOQEPdeYio2tlFZH+b5q3ejJ0QvS88PLxQdyAinVgAyW2IiNe0adOaHcz57i8/XbjQT0EFgbuFiVyboMLP1/d4o7saLp85PX59r1698pVSvEaS3B4LILmdH3/80fe5iXEDT5w69UcPT69B4NmBRK7IDuAs7LZPX3p5+oLoZ57h7l6iX2ABJLeVmZnZaOprfxruAUMMgNbg10AiFyFWBWQ88uiglaaePb+MjIws0Z2IyNGwAJJbExGPZe++22Tjhk/G5p35IRoK9cA7somckUBQUmGtONK8RfOEtWkpWxo0aFDC5V6iX8cCSPR3E+Km9vl8164xIgiHQl3w+SByFja7yLHghne927Vzu/fnzp17UXcgIkfHFxzRL2zYsaPOyuTkB0+cOj1DwdANXBYmcmwihTDg/alxz68eP2ZMNs/zI/p9WACJ/oWIqC8OHGjw19fffCr/0uWxpaVlraHgqTsXEf2THYLiigrrl08MG/qnuPFjjgYHB5fqDkXkTFgAiX7D6tWrW/45aeEUg8X6KKCCwS+CRJpJhQC7O3XsvLZ+Ld/1ycnJvL6N6DawABL9F1u3bvX/bIf5/k2ffTYGSg0FFDeJEGkh53z9fFNmz3r1gyGDBuVxuZfo9rEAEv0OIqLy8/P9R4we+2je93nxRk/PdkrBF3yGiKqaHcCVGv5+H0+ZHLv42SefPKmUsugOReTs+PIiukWxsdMbHT1+LOrC5Z9GQqm24LIwUVUQAEUC7Iro3y91wfx3NvFIF6LKwwJIdBsyMjKMhYXF3ROTk0cK5EkAgbozEbkUwdGO7TskPvvU0K2DBw++wPJHVLlYAInuwPnz5/0WLV16z8asLbNtVvt9UFIDUHyuiG6PVUT9GBgY+P7iJYkp3dq3P6+UsukOReSK+KIiqgRLliypsXvf/qe/OXr0aQF68dgYolsll3x9vTcPejhi0Vt/ee0bfvEjqlosgESVREQMWVlZLV57661nSm6UjgVUY92ZiJxAhRKYhw4bnNr3/vu3Dxgw4LruQETugAWQqJLl5uZ6/y07OyxxQVJcyc3ySBhUELhRhOiXBIAFwJl69QITO7ZunZGcnHydx7oQVR8WQKIqIiIqdnL84K3mXTEG4H4o1ASfOSIIkNusafD6Ll3uWTFn9uzTuvMQuSO+jIiqkIioDRu2NF730YcRh48enQyFMN2ZiDS6IXbJmj4tPuWh3j2+bNWqVbnuQETuigWQqBqIiEefPn2Cy5RxwtWr155UgsZQyqg7F1E1EAWUKg/jN7W8vd+a9Pz43VFRUUW6QxG5OxZAomokIuqFWbO6bt+6M66stCwcCvV0ZyKqOlIhUEe63tv5w+6dOqROnTr1mu5ERPQzFkAiDT42mwO+Mu8etGFj5jgAvQEeG0Mu52qdOkFp06bErRk2ePAxpZRVdyAi+n8sgESaiIghJiYm6MiJUyMKrl6boiBNAOUJPpfkvAQi1/z8/b6oG1AzIT019evg4OBS3aGI6N/xRUPkAF589dVWhw8dfu7M2XPDoFSI7jxEt0oBJSL4OnzggOTwvn0+joiI4AYPIgfGAkjkIMxms0/e2bO9356fNB7AIAH8dGci+j0E9tO9unVb+sjARzc+8cTg73mLB5HjYwEkcjBZWVmBi5JT+p69cPElm83WHoA3+KyS47EBUhAQGPhJy8bt31m7NukHpZRFdygi+n34UiFyUAkJCUEHDh+dkH3wm+EAwpRSHrozEf3d9dq1am8zPdhz6fChQ/d27dq1QncgIro1LIBEDiw7O9vz9OkfOy5YlvzslfyC0VCopTsTuTUrIAcL8y+vSF++bENkZOQV3YGI6PawABI5gcOHD/tPiHv1vhvlhdPKSkp6QykWQao2AlQoSEG9+vWSBg/ot6Z79+4XTSYTj3UhcmIsgEROJCMjw3fvV189vmW7+XkFdATgqzsTubyfWoSEfNo2tOWyhLffPqw7DBFVDhZAIicjIuqVV15p8966jGH+NWuNA1RT3ZnIJZWLYJd/h9CkdbNm7QkNDS3WHYiIKg8LIJGTys3N9Z49+80WJ384PfN6UVE4oAIAGHTnIqdn8fAwnqhdO3DBS1Oe3/TYY49d0h2IiCofCyCRk8vJyfFa/t57pn37vhpfVFTUH0AN3ZnIKVkh6nT3bl0yu3fuMXfSpOh83YGIqOqwABK5iMzMHQ3GJrw+PPDqjWhAOgAw6s5ETqNMCVb1eaD3mhenxh1o1aoVb/EgcnEsgEQuJDs723OL2dxky6atf8wvKIyFQm0F8PxA+nUiN/39/A56+/nNe3fpIjP/zo/IfbAAErmoydNe6vbdqZMT8/LOhANoqDsPORQLlByP6D8w+ZHwfh8OGDDguu5ARFS9WACJXNihQ4cCXpjxykNnL1yaooBeUPDUnYm0EgguWg1q1aiRT2fMmjbtkO5ARKQHCyCRixMRtT4rq9H8+fOHFBffnGStsIUALILuRewClATUqPVFx45tZ70+a9aJRo0alehORUT6sAASuZHExJS75i+c97JfzVqPAnI3uFHE9YmUWa0Wc/PmzdJSFy/eHBISUqY7EhHpxwJI5GYSEhJ8D58502vvrr1RRsEz4NdAV2UH5KRRVPrMGfHvR0VFndMdiIgcBwsgkZvKy8sLeGr06PCSEkt8eVlZBwDe4ExwBTYAxUGBtdMfH/aHtEH9+p1q166dRXcoInIsHPZEbm7Hjh114l+eGVVWbhkHqDbgsTHOSgRSUO7tbe7bo+eidxcl7tEdiIgcFwsgEQEA3pw7974Va9eNMNjlaQXUBeeDM7HbIftbNm++8A9jRm2PiYy8ojsQETk2Dngi+qecnJwaby9M7nD0yJHXb9y82UsJfKA4JxyVAFZPT48f/X38U9+Y9dK6hx9++IxSSnTnIiLHx8FORP/m/PnzfuPjpgw9kXtqtB3SW0F56c5EvyCwQ8l5D4Nx8+Qpse/EjBr1ve5IRORcWACJ6D96LyMjZM4b80ZaYR0JIAScGY6gAmLf2L+/afWgvn13RkZG8jw/IrplHOZE9Jvy8vJ8Nm7cFLbmo4/GF1+//iQUagAw6M7lZgSCCh9fn9ygoFrzliYmfhoaGlrI5V4iul0sgET0u40bHzvwi717YpXB2BtAbXCGVAe7QE7Uq99w7V9nTl9hMpku6g5ERM6Pw5uIbkl6enrD/8naEnEqN/d5gboHnCNVRoACgf3j8dGjVt2YPPlvs5Wy685ERK6Bg5uIbpmIGDfv3NlixoyZo8rLy0cqZWgIxWvlKoVABLBA7Af6DzD9+YXY2AMtWrS4rjsWEbkWFkAiuiOjR8eEHTh08GWL3dYfQANwrtw+EQtEZbdu03p1ozq13lu+fDk3eBBRleCgJqI7lpmZWXPbF3sGbdvx+UgoDFS8TeTWiTpXo6b/qrhx49eMGjXipOJyLxFVIRZAIqoUImI4duxY/efi4h+/dPlSvDIYghVgBOfMbxEANzw9jJsmjh+3aPCgQYeCg4NLdYciItfHwUxEle6pp54K/iG/cMKV/PzhCqo5OGv+lYigWMF2oFev+5PSly3J4pEuRFSdOJSJqEqYzWaP/UeO9Fm54t1ogXoEPx8bQwBEcKRjWFhqeGT4xnFRUed05yEi98MCSERV6vjx43UWpqQ88Pnne/4kIu2g4AF3nD0Cu0AKvL291y2am5D80EM9TymlrLpjEZF7cr8hTERaTJ8+vebx02divjt56mkFtAfgqTtTNRFACnx8fLb36HbvvJTFiw9xuZeIdGMBJKJqIyLGlSvXtF+yMu2PN4qLnwFQX3emKmaxA3sHDwpfdW+HsI1RUVFFugMREQEsgESkQU5OTo2d+/b1WJq8fIrVbjcpwBeuM48EgF0El1uENJ035y9zPuzUqfVFpZRNdzAion9wlYFLRE4oIyPDmLlt5+PZ+/dPFqAjoPx1Z7pzktfwroaZTVu1WLh68eI83WmIiH4NCyARaSUiavmqVc0/27bt8W+PHB+jDKqV7ky3RVAMke2xE8amtAwJ2RUREVGuOxIR0X/CAkhEDiE3N9d7yPDhoTB4xVdYKoYAUhNKOfqMEojYoAzHrSWlb784LW77hAkTLusORUT03zj6cCUiNyMihnHjJt1/4Juv40stpQ8AKggOOavEIoLjYaGh69uEdF74zjszinUnIiL6vRxwqBIRAWvXZgV+ffRvj326efMTCgYTft4o4ggEwNm69YPWjBwxYn2b5tE5JhPP8yMi58ICSEQOS0SMX399vP7Ls1/t8dP5c3HWCmsPUfD6+x3D1RsFsBmUuuDp6blycmzcp+H9HjzGe3uJyFmxABKRUzCbzR5r137cqQzlT+7ff8AkkLsBVacqy6AApQo4G9y40bfBTZtubhty9/oZM7jUS0TOjwWQiJyKiKi0tLRmVoPh3tVrP+h8Jb/gPsDQFpC7oCqhDApuQuG4UvajQyIHH2revNn+Lh07Hu3atWtJJcQnInIILIBE5LRycnK8rFZr/QqlAme/9kazvHM/dBeoNoCEit3e1Gqz+qifx5zCPy5fU4KfR5+IUgarh4dHoYh8D4UjEPXt9Pj4nPadwi4ardaCzp07Fyml7Np+QSKiKsICSEQuSUTUMxMnBvgA9e1W5WswKF8AsNvFajTaS412e1GXLl0uxMTEVOjOSkREREREREREREREREREREREREREREREREREREREREREREREREREREREREREREREREREREREREREDu//ABBPKghhf7AZAAAAAElFTkSuQmCC;" vertex="1" parent="1">
                    <mxGeometry x="170" y="310" width="88.89" height="50" as="geometry"/>
                </mxCell>
            </root>
        </mxGraphModel>
    </diagram>
</mxfile>